<svg width="160" height="253" fill="none" xmlns="http://www.w3.org/2000/svg"><g id="download_buttons"><g id="download_apk"><rect id="Rectangle" width="160" height="50" rx="5" fill="#000"/><g id="Android"><path id="Subtract" fill-rule="evenodd" clip-rule="evenodd" d="m31.465 12.151-.344.507c2.614 1.186 4.384 3.434 4.384 6.005h-17.26c0-2.571 1.77-4.819 4.387-6.005l-.347-.507-.345-.5-.767-1.122a.296.296 0 0 1 .086-.416.315.315 0 0 1 .429.084l.824 1.203.346.505.35.514a10.386 10.386 0 0 1 3.667-.656c1.311 0 2.553.235 3.667.656l.352-.514 1.172-1.708a.309.309 0 0 1 .426-.084.293.293 0 0 1 .086.416l-.768 1.123-.345.5Zm-13.22 7.712h17.26v13.2c0 1.048-.873 1.9-1.952 1.9h-1.41c.049.16.077.325.077.5v3.8c0 .994-.83 1.8-1.852 1.8-1.02 0-1.848-.806-1.848-1.8v-3.8c0-.175.026-.34.073-.5h-3.435c.047.16.075.325.075.5v3.8c0 .994-.83 1.8-1.85 1.8-1.021 0-1.85-.806-1.85-1.8v-3.8c0-.175.025-.34.074-.5H20.2c-1.079 0-1.953-.852-1.953-1.9v-13.2Zm-3.082 0c-1.023 0-1.85.806-1.85 1.799v7.7c0 .994.827 1.8 1.85 1.8 1.02 0 1.848-.806 1.848-1.8v-7.7c0-.993-.828-1.799-1.848-1.799Zm21.576 1.799c0-.993.828-1.799 1.85-1.799 1.02 0 1.849.806 1.849 1.799v7.7c0 .994-.828 1.8-1.849 1.8-1.023 0-1.85-.806-1.85-1.8v-7.7Zm-15.063-5.4a.912.912 0 0 1-.925-.9.91.91 0 0 1 .925-.898c.51 0 .925.401.925.899 0 .497-.414.9-.925.9Zm6.473-.9c0 .498.413.9.924.9a.912.912 0 0 0 .925-.9.91.91 0 0 0-.925-.898.91.91 0 0 0-.924.899Z" fill="#fff"/></g><g id="Group 2" fill="#fff"><path id="DOWNLOAD APK 6.0+" d="M50.66 17v-5.998h2.113c.472 0 .88.073 1.226.22.349.143.627.35.835.619.208.27.36.583.457.94.1.355.15.758.15 1.209 0 .357-.03.685-.089.984a3.005 3.005 0 0 1-.29.826 2.205 2.205 0 0 1-.51.642 2.175 2.175 0 0 1-.755.413 3.35 3.35 0 0 1-1.024.145h-2.114Zm1.063-.888h.922c.569 0 .994-.168 1.275-.505.284-.337.426-.87.426-1.6 0-.325-.03-.612-.088-.861a2.019 2.019 0 0 0-.28-.664 1.24 1.24 0 0 0-.533-.443 1.899 1.899 0 0 0-.8-.154h-.922v4.227Zm5.21-1.687v-.8c0-.85.227-1.519.678-2.008.45-.49 1.066-.734 1.845-.734.78 0 1.393.244 1.842.734.448.489.672 1.158.672 2.008v.8c0 .844-.226 1.504-.677 1.982-.448.474-1.065.712-1.85.712-.782 0-1.396-.238-1.841-.712-.445-.475-.668-1.136-.668-1.982Zm1.073.004c0 .586.132 1.031.396 1.336.263.302.613.453 1.05.453.434 0 .782-.151 1.046-.453.264-.305.395-.75.395-1.336v-.813c0-.589-.133-1.041-.4-1.358-.263-.316-.61-.474-1.041-.474-.434 0-.784.158-1.05.474-.264.317-.396.77-.396 1.358v.813Zm5.145-3.428h1.17l.966 4.404h.04l1.098-4.403h.963l1.094 4.403h.044l.962-4.403h1.17L69.052 17h-.975l-1.156-4.32h-.04L65.727 17h-.976l-1.6-5.998ZM72.076 17v-5.998h.919l2.755 4.196h.035v-4.197h1.01V17h-.909l-2.764-4.21h-.03V17h-1.016Zm6.767 0v-5.998h1.063v5.084h2.61V17h-3.673Zm4.754-2.575v-.8c0-.85.226-1.519.677-2.008.451-.49 1.066-.734 1.846-.734.779 0 1.393.244 1.84.734.45.489.673 1.158.673 2.008v.8c0 .844-.225 1.504-.677 1.982-.448.474-1.065.712-1.85.712-.782 0-1.396-.238-1.841-.712-.445-.475-.668-1.136-.668-1.982Zm1.072.004c0 .586.132 1.031.396 1.336.264.302.614.453 1.05.453.434 0 .782-.151 1.046-.453.264-.305.395-.75.395-1.336v-.813c0-.589-.133-1.041-.4-1.358-.263-.316-.61-.474-1.04-.474-.434 0-.785.158-1.051.474-.264.317-.396.77-.396 1.358v.813ZM89.753 17l2.048-5.998h1.209L95.053 17h-1.138l-.51-1.617h-2.07L90.825 17h-1.072Zm1.815-2.426h1.608l-.782-2.496h-.04l-.786 2.496ZM96.516 17v-5.998h2.113c.472 0 .88.073 1.226.22.349.143.627.35.835.619.208.27.361.583.457.94.1.355.15.758.15 1.209 0 .357-.029.685-.088.984a3.012 3.012 0 0 1-.29.826 2.21 2.21 0 0 1-.51.642 2.173 2.173 0 0 1-.756.413A3.35 3.35 0 0 1 98.63 17h-2.113Zm1.063-.888h.923c.568 0 .993-.168 1.274-.505.285-.337.427-.87.427-1.6 0-.325-.03-.612-.088-.861a2.027 2.027 0 0 0-.281-.664 1.239 1.239 0 0 0-.532-.443 1.899 1.899 0 0 0-.8-.154h-.923v4.227Zm7.368.888 2.048-5.998h1.209L110.247 17h-1.138l-.51-1.617h-2.07L106.02 17h-1.073Zm1.815-2.426h1.609l-.783-2.496h-.039l-.787 2.496ZM111.71 17v-5.998h2.338c.612 0 1.097.183 1.454.549.358.366.536.836.536 1.41 0 .578-.18 1.046-.54 1.407-.358.36-.844.54-1.459.54h-1.266V17h-1.063Zm1.063-2.944h.769c.475 0 .829-.08 1.064-.238.234-.16.351-.446.351-.857 0-.348-.095-.618-.285-.808-.191-.19-.457-.286-.8-.286h-1.099v2.189Zm4.86 2.944v-5.998h1.063v2.75h.049l2.373-2.75h1.182l-2.167 2.575L122.401 17h-1.292l-1.758-2.707-.655.725V17h-1.063Zm8.357-2.835c0-1.054.209-1.863.628-2.425.422-.566.991-.848 1.705-.848.29 0 .557.046.8.14.246.094.447.219.602.374.156.152.279.32.369.5.091.182.144.367.159.554h-1.016c-.02-.178-.115-.342-.285-.492-.167-.15-.385-.224-.655-.224-.393 0-.706.194-.94.58-.232.387-.352.929-.361 1.626h.04c.094-.237.265-.442.514-.615.252-.173.561-.26.927-.26.249 0 .487.045.712.133.229.087.432.212.611.373.182.158.327.365.435.62.108.252.163.53.163.835 0 .427-.097.8-.29 1.12-.194.32-.452.56-.774.721a2.391 2.391 0 0 1-1.077.237c-.703 0-1.256-.252-1.661-.756-.404-.504-.606-1.235-.606-2.193Zm1.138.919c0 .366.11.655.33.866.219.208.489.312.808.312.314 0 .577-.103.791-.308.214-.205.321-.495.321-.87 0-.372-.11-.662-.33-.87a1.09 1.09 0 0 0-.791-.316 1.1 1.1 0 0 0-.804.32c-.217.214-.325.503-.325.866Zm4.908 1.832a.585.585 0 0 1-.18-.443c0-.182.058-.328.176-.44a.628.628 0 0 1 .444-.167.63.63 0 0 1 .452.172c.12.11.18.256.18.435 0 .181-.06.33-.18.444a.64.64 0 0 1-.452.166.624.624 0 0 1-.44-.166Zm2.504-2.698v-.43c0-.888.197-1.594.589-2.119.393-.524.942-.786 1.648-.786s1.251.26 1.635.782c.384.522.576 1.229.576 2.123v.43c0 .572-.083 1.074-.247 1.508-.164.43-.416.77-.755 1.02-.34.248-.749.373-1.227.373-.706 0-1.252-.261-1.639-.783-.386-.521-.58-1.227-.58-2.118Zm1.064-.008c0 .653.102 1.155.307 1.507.208.348.493.523.853.523s.644-.176.852-.528c.208-.351.312-.852.312-1.502v-.418c0-.65-.104-1.15-.312-1.498-.208-.352-.492-.528-.852-.528s-.645.176-.853.527c-.205.35-.307.849-.307 1.499v.418Zm4.802.817v-.87h1.749v-1.815h.879v1.815h1.758v.87h-1.758v1.89h-.879v-1.89h-1.749Z"/><path id="Android_2" d="m49.19 38.5 5.234-15.33h3.089l5.222 15.33h-2.909l-1.303-4.133h-5.29L51.932 38.5h-2.74Zm4.64-6.2h4.11l-2-6.378h-.1L53.83 32.3Zm10.562 6.2V26.618h2.605v1.674h.101c.225-.51.636-.948 1.236-1.315.598-.366 1.328-.55 2.19-.55 1.22 0 2.216.37 2.987 1.112.778.734 1.168 1.77 1.168 3.11V38.5h-2.662v-7.019c0-1.842-.82-2.763-2.46-2.763-.785 0-1.403.244-1.852.73-.442.487-.663 1.19-.663 2.112v6.94h-2.65Zm12.55-5.278v-1.348c0-1.655.397-2.972 1.19-3.953.794-.98 1.913-1.471 3.358-1.471.884 0 1.621.176 2.213.527.591.345.992.794 1.201 1.348h.101v-5.963h2.65V38.5h-2.594v-1.82h-.1c-.165.555-.558 1.023-1.18 1.404-.621.382-1.385.573-2.29.573-1.438 0-2.558-.486-3.359-1.46-.793-.98-1.19-2.306-1.19-3.975Zm2.706-.27c0 1.108.229 1.98.686 2.617.456.629 1.123.943 1.998.943.832 0 1.483-.307 1.955-.92.479-.622.718-1.494.718-2.617v-.888c0-1.078-.243-1.928-.73-2.549-.479-.621-1.141-.932-1.987-.932-.861 0-1.517.318-1.966.954-.449.637-.674 1.502-.674 2.595v.797ZM90.694 38.5V26.618h2.65v1.539h.101c.45-1.146 1.39-1.718 2.82-1.718.306 0 .598.026.875.078v2.325c-.187-.06-.554-.09-1.1-.09-1.767 0-2.65.92-2.65 2.763V38.5h-2.696Zm7.406-5.537v-.842c0-1.108.191-2.085.573-2.931a4.58 4.58 0 0 1 1.808-2.021c.816-.502 1.805-.753 2.965-.753 1.737 0 3.059.517 3.965 1.55.913 1.025 1.37 2.407 1.37 4.144v.853c0 1.782-.453 3.186-1.359 4.212-.906 1.018-2.231 1.527-3.976 1.527-1.744 0-3.073-.509-3.987-1.527-.906-1.018-1.359-2.422-1.359-4.212Zm2.662-.067c0 .51.045.973.135 1.393.09.419.232.808.427 1.167.194.352.471.63.831.832.359.202.79.303 1.291.303.494 0 .921-.098 1.28-.292.36-.202.633-.483.82-.843.195-.359.333-.748.416-1.167.09-.42.135-.884.135-1.393v-.685c0-.517-.045-.985-.135-1.404a4.102 4.102 0 0 0-.416-1.168 2.013 2.013 0 0 0-.831-.83c-.352-.203-.775-.304-1.269-.304-.494 0-.924.101-1.291.303-.36.202-.637.483-.831.842a4.168 4.168 0 0 0-.427 1.168c-.09.42-.135.884-.135 1.393v.685Zm10.72-8.198a1.331 1.331 0 0 1-.438-1.022c0-.412.146-.749.438-1.011.299-.27.677-.404 1.134-.404.479 0 .865.134 1.157.404.299.262.449.599.449 1.01 0 .413-.146.753-.438 1.023-.292.262-.681.393-1.168.393-.457 0-.835-.131-1.134-.393Zm-.169 13.802V26.618h2.651V38.5h-2.651Zm5.206-5.278v-1.348c0-1.655.397-2.972 1.19-3.953.794-.98 1.913-1.471 3.358-1.471.884 0 1.621.176 2.213.527.591.345.992.794 1.201 1.348h.101v-5.963h2.651V38.5h-2.594v-1.82h-.102c-.164.555-.557 1.023-1.179 1.404-.621.382-1.385.573-2.291.573-1.437 0-2.557-.486-3.358-1.46-.793-.98-1.19-2.306-1.19-3.975Zm2.706-.27c0 1.108.229 1.98.686 2.617.456.629 1.123.943 1.999.943.831 0 1.482-.307 1.954-.92.479-.622.718-1.494.718-2.617v-.888c0-1.078-.243-1.928-.73-2.549-.479-.621-1.141-.932-1.987-.932-.861 0-1.516.318-1.966.954-.449.637-.674 1.502-.674 2.595v.797Z"/></g></g><g id="download_apple"><rect id="Rectangle_2" y="50.5" width="160" height="50" rx="5" fill="#000"/><path id="Shape" fill-rule="evenodd" clip-rule="evenodd" d="M31.436 59c.268 1.822-.474 3.607-1.452 4.87-1.047 1.355-2.85 2.403-4.599 2.348-.32-1.744.498-3.542 1.492-4.75 1.09-1.334 2.96-2.357 4.559-2.468Zm5.251 25.648c.902-1.381 1.238-2.078 1.938-3.637-5.089-1.935-5.904-9.17-.868-11.946-1.536-1.926-3.694-3.043-5.732-3.043-1.468 0-2.474.384-3.388.732-.762.29-1.46.556-2.31.556-.919 0-1.732-.291-2.583-.597-.935-.335-1.917-.687-3.135-.687-2.287 0-4.72 1.397-6.263 3.785-2.17 3.364-1.8 9.688 1.718 15.075C17.32 86.814 19 88.98 21.198 89c.912.009 1.518-.263 2.175-.558.75-.337 1.568-.703 2.982-.71 1.422-.009 2.226.362 2.967.704.64.295 1.233.568 2.137.558 2.198-.017 3.971-2.418 5.228-4.346Z" fill="#fff"/><g id="Group 2_2" fill="#fff"><path id="DOWNLOAD ON THE" d="M51.16 61.002V67h2.113c1.951 0 2.667-1.27 2.667-3.01 0-1.758-.733-2.989-2.667-2.989h-2.114Zm1.063.887h.922c1.28 0 1.701.87 1.701 2.118 0 1.481-.584 2.105-1.7 2.105h-.923V61.89Zm6.288 1.727c0-1.213.615-1.832 1.445-1.832.835 0 1.442.62 1.442 1.832v.813c0 1.213-.607 1.789-1.442 1.789-.83 0-1.446-.576-1.446-1.789v-.813Zm-1.077.809c0 1.696.958 2.694 2.518 2.694 1.56 0 2.527-.998 2.527-2.694v-.8c0-1.7-.954-2.742-2.518-2.742-1.556 0-2.527 1.037-2.527 2.742v.8ZM66.235 67l1.156-4.32h.04L68.587 67h.97l1.605-5.998h-1.139l-.993 4.403h-.044L67.892 61h-.958l-1.099 4.404h-.039L64.798 61H63.66L65.26 67h.975Zm7.347 0v-4.21h.031L76.395 67h.91v-5.998h-.994v4.196h-.035l-2.773-4.196h-.918V67h.997Zm9.444-.914h-2.61v-5.084h-1.064V67h3.673v-.914Zm2.244-2.47c0-1.213.616-1.832 1.446-1.832.835 0 1.442.62 1.442 1.832v.813c0 1.213-.607 1.789-1.442 1.789-.83 0-1.446-.576-1.446-1.789v-.813Zm-1.076.809c0 1.696.958 2.694 2.518 2.694 1.56 0 2.527-.998 2.527-2.694v-.8c0-1.7-.954-2.742-2.518-2.742-1.556 0-2.527 1.037-2.527 2.742v.8ZM91.426 67l.51-1.617h2.07l.51 1.617h1.138l-2.043-5.998h-1.209L90.354 67h1.072Zm1.57-4.922.782 2.496h-1.609l.787-2.496h.04Zm4.116-1.077V67h2.114c1.951 0 2.668-1.27 2.668-3.01 0-1.758-.734-2.989-2.668-2.989h-2.114Zm1.064.888h.923c1.278 0 1.7.87 1.7 2.118 0 1.481-.584 2.105-1.7 2.105h-.923V61.89Zm8.792 1.727c0-1.213.615-1.832 1.446-1.832.835 0 1.441.62 1.441 1.832v.813c0 1.213-.606 1.789-1.441 1.789-.831 0-1.446-.576-1.446-1.789v-.813Zm-1.077.809c0 1.696.958 2.694 2.518 2.694 1.56 0 2.527-.998 2.527-2.694v-.8c0-1.7-.954-2.742-2.518-2.742-1.556 0-2.527 1.037-2.527 2.742v.8ZM113.735 67v-4.21h.03l2.782 4.21h.91v-5.998h-.993v4.196h-.035l-2.773-4.196h-.919V67h.998Zm10.484 0v-5.098h1.744v-.9h-4.539v.9h1.74V67h1.055Zm8.001 0v-5.998h-1.063v2.474h-2.672v-2.474h-1.063V67h1.063v-2.628h2.672V67h1.063Zm5.827-.888h-2.729v-1.736h2.566v-.839h-2.566V61.89h2.729v-.888h-3.788V67h3.788v-.888Z"/><path id="App Store" d="m49.19 89 5.234-15.33h3.089L62.735 89h-2.909l-1.303-4.133h-5.29L51.932 89h-2.74Zm4.64-6.2h4.11l-2-6.378h-.1L53.83 82.8Zm10.573 10.21V77.106h2.594v1.718h.101c.247-.569.674-1.022 1.28-1.359.607-.344 1.356-.516 2.246-.516 1.356 0 2.438.475 3.246 1.426.816.95 1.224 2.276 1.224 3.976v1.426c0 1.7-.408 3.02-1.224 3.964-.809.944-1.905 1.415-3.29 1.415-.869 0-1.588-.168-2.157-.505-.569-.337-.988-.779-1.258-1.325h-.112v5.682h-2.65Zm2.65-9.378c0 .98.243 1.79.73 2.426.494.628 1.157.943 1.988.943.794 0 1.426-.292 1.898-.876.48-.591.719-1.449.719-2.572v-1c0-1.107-.236-1.957-.708-2.549-.472-.599-1.123-.898-1.954-.898-.823 0-1.475.303-1.954.91-.48.599-.719 1.4-.719 2.403v1.213Zm10.372 9.377V77.107h2.594v1.718h.101c.247-.569.674-1.022 1.28-1.359.607-.344 1.355-.516 2.246-.516 1.356 0 2.438.475 3.246 1.426.816.95 1.224 2.276 1.224 3.976v1.426c0 1.7-.408 3.02-1.224 3.964-.808.944-1.905 1.415-3.29 1.415-.869 0-1.588-.168-2.157-.505-.569-.337-.988-.779-1.257-1.325h-.113v5.682h-2.65Zm2.65-9.377c0 .98.243 1.79.73 2.426.494.628 1.157.943 1.988.943.794 0 1.426-.292 1.898-.876.479-.591.719-1.449.719-2.572v-1c0-1.107-.236-1.957-.708-2.549-.472-.599-1.123-.898-1.954-.898-.824 0-1.475.303-1.954.91-.48.599-.719 1.4-.719 2.403v1.213ZM93.9 84.71h2.64c.06.681.381 1.25.965 1.707.584.45 1.382.674 2.392.674.959 0 1.707-.206 2.246-.618.547-.412.82-.97.82-1.673 0-.554-.194-.996-.584-1.325-.382-.33-.988-.596-1.819-.798l-2.46-.595a6.972 6.972 0 0 1-1.46-.494 5.639 5.639 0 0 1-1.201-.809c-.36-.33-.64-.737-.842-1.224a4.239 4.239 0 0 1-.304-1.64c0-.95.259-1.778.775-2.481a4.633 4.633 0 0 1 2.033-1.584c.838-.344 1.77-.516 2.796-.516 1.034 0 1.966.175 2.797.527.838.352 1.505.876 1.999 1.573.501.688.76 1.49.775 2.403h-2.583a2.317 2.317 0 0 0-.854-1.651c-.516-.434-1.235-.651-2.156-.651-.861 0-1.554.194-2.078.584-.516.382-.775.91-.775 1.583 0 .996.704 1.659 2.112 1.988l2.47.595a8.75 8.75 0 0 1 1.618.528c.464.21.887.48 1.269.809.389.329.685.74.887 1.235.202.494.303 1.063.303 1.707 0 1.482-.546 2.643-1.64 3.481-1.085.839-2.53 1.258-4.334 1.258-.832 0-1.584-.093-2.258-.28-.666-.188-1.216-.431-1.65-.73a4.517 4.517 0 0 1-1.079-1.056A4.386 4.386 0 0 1 94.091 86c-.12-.419-.183-.85-.19-1.291Zm13.236-5.424v-2.078h1.707v-2.965h2.583v2.965h2.313v2.078h-2.313v6.098c0 .621.131 1.048.393 1.28.269.225.737.337 1.404.337.292 0 .486-.008.584-.023v2.01a7.99 7.99 0 0 1-1.236.09c-.966 0-1.726-.123-2.28-.37-.554-.247-.943-.61-1.168-1.09-.217-.486-.325-1.141-.325-1.965v-6.367h-1.662Zm8.136 4.177v-.842c0-1.108.191-2.085.573-2.931a4.577 4.577 0 0 1 1.808-2.022c.816-.501 1.805-.752 2.965-.752 1.737 0 3.058.517 3.964 1.55.914 1.026 1.371 2.407 1.371 4.144v.853c0 1.782-.453 3.186-1.359 4.212-.906 1.018-2.231 1.527-3.976 1.527-1.744 0-3.073-.509-3.987-1.527-.906-1.018-1.359-2.422-1.359-4.212Zm2.662-.067c0 .51.045.973.135 1.393.09.419.232.808.426 1.168.195.351.472.628.832.83.359.203.789.304 1.291.304.494 0 .921-.097 1.28-.292.36-.202.633-.483.82-.843.195-.359.333-.748.416-1.167.09-.42.134-.884.134-1.393v-.685a6.71 6.71 0 0 0-.134-1.404 4.102 4.102 0 0 0-.416-1.168 2.025 2.025 0 0 0-.831-.83c-.352-.203-.775-.304-1.269-.304-.494 0-.925.101-1.291.303-.36.202-.637.483-.832.842a4.198 4.198 0 0 0-.426 1.168c-.09.42-.135.884-.135 1.393v.685ZM128.384 89V77.118h2.651v1.539h.101c.449-1.146 1.388-1.718 2.818-1.718.307 0 .599.026.876.078v2.325c-.187-.06-.554-.09-1.1-.09-1.767 0-2.651.92-2.651 2.763V89h-2.695Zm7.407-5.413v-1c0-1.737.457-3.114 1.37-4.132.913-1.026 2.175-1.539 3.785-1.539 1.639 0 2.905.513 3.796 1.539.898 1.025 1.347 2.4 1.347 4.121v1.067h-7.681v.37c0 .877.232 1.61.696 2.202.464.591 1.127.887 1.988.887.681 0 1.213-.15 1.594-.45.39-.299.629-.677.719-1.133h2.561c-.038.337-.124.67-.259 1-.127.328-.318.658-.572.987-.255.33-.562.618-.921.865-.352.247-.798.45-1.337.607a6.61 6.61 0 0 1-1.774.224c-1.692 0-3.002-.498-3.931-1.493-.921-1.004-1.381-2.378-1.381-4.122Zm2.617-1.73h5.098v-.022c0-.854-.228-1.546-.685-2.078-.457-.531-1.074-.797-1.853-.797-.786 0-1.411.27-1.875.809-.457.531-.685 1.22-.685 2.066v.022Z"/></g></g><g id="download_huawei"><rect id="Rectangle_3" y="152" width="160" height="50" rx="5" fill="#000"/><g id="Huawei_AppGallery 1"><path id="rect817" d="M34.506 162.155H17.599a6.396 6.396 0 0 0-6.397 6.396v16.907a6.397 6.397 0 0 0 6.397 6.397h16.907a6.397 6.397 0 0 0 6.396-6.397v-16.907a6.396 6.396 0 0 0-6.396-6.396Z" fill="#E14459"/><path id="path838" d="M18.442 164.096a.845.845 0 0 0-.843.843.841.841 0 0 0 .845.841.846.846 0 0 0 .844-.842v-.002a.846.846 0 0 0-.846-.84Zm15.114 0a.845.845 0 0 0-.844.843.841.841 0 0 0 .845.841.846.846 0 0 0 .845-.842v-.002a.847.847 0 0 0-.846-.84Z" fill="#C73148"/><path id="path2" d="M18.409 164.822c-.294.015-.279.443-.279.443 1.578 3.073 4.484 4.58 7.835 4.58 3.346-.005 6.28-1.529 7.857-4.598 0 0 .062-.578-.553-.377-1.616 2.679-4.331 4.263-7.302 4.268-2.977.001-5.682-1.567-7.302-4.251a.526.526 0 0 0-.256-.065Zm10.68 11.945-.898 2.674-.874-2.672h-.853l1.378 3.887h.664l.9-2.554.898 2.554h.67l1.375-3.887h-.832l-.876 2.672-.898-2.674h-.654Zm-4.769.001-1.742 3.886h.82l.336-.753.023-.056h1.81l.355.809h.841l-1.726-3.863-.015-.023h-.702Zm12.616 0v3.883h.792v-3.883h-.792Zm-22.698.001v3.888h.802v-1.579h1.812v1.579h.802v-3.888h-.802v1.569H15.04v-1.569h-.802Zm7.13.001v2.225c0 .633-.319.97-.899.97-.583 0-.904-.347-.904-.996v-2.197h-.802v2.224c0 1.093.618 1.72 1.696 1.72 1.088 0 1.711-.639 1.711-1.753v-2.193h-.802Zm11.627.001v3.883h2.986v-.708h-2.195v-.962h1.46v-.709h-1.46v-.795h2.119v-.709h-2.91Zm-8.335.981.573 1.302.038.089h-1.213l.038-.089.564-1.302Z" fill="#fff"/></g><g id="Group 2_3" fill="#fff"><path id="GET IT ON" d="M56.34 164.939c-.054-1.157-.908-2.236-2.578-2.236-1.729 0-2.793 1.152-2.793 3.013v.864c0 1.797.874 3.052 2.768 3.052 1.953 0 2.617-1.353 2.617-2.344v-1.343h-2.602v.913h1.475v.489c0 .722-.591 1.279-1.48 1.279-1.099 0-1.592-.82-1.592-2.046v-.859c0-1.402.694-2.012 1.592-2.012.737 0 1.343.415 1.44 1.23h1.153Zm6.23 3.575h-3.033v-1.929h2.852v-.933h-2.852v-1.831h3.032v-.986H58.36v6.665h4.21v-.986Zm4.506.986v-5.664h1.938v-1.001H63.97v1.001h1.934v5.664h1.172Zm7.522 0v-6.665h-1.181v6.665h1.181Zm4.829 0v-5.664h1.938v-1.001h-5.044v1.001h1.934v5.664h1.172Zm7.274-3.76c0-1.347.683-2.036 1.606-2.036.928 0 1.602.689 1.602 2.036v.904c0 1.347-.674 1.987-1.602 1.987-.923 0-1.606-.64-1.606-1.987v-.904Zm-1.197.899c0 1.884 1.065 2.993 2.798 2.993s2.808-1.109 2.808-2.993v-.889c0-1.89-1.06-3.047-2.798-3.047-1.729 0-2.808 1.152-2.808 3.047v.889Zm8.715 2.861v-4.678h.035l3.09 4.678h1.011v-6.665h-1.103v4.663h-.04l-3.08-4.663H93.11v6.665h1.108Z"/><path id="AppGallery" d="m51.687 188.5 1.189-3.773h4.83l1.189 3.773h2.656l-4.768-13.997h-2.82L49.185 188.5h2.502Zm3.66-11.484 1.825 5.824H53.42l1.836-5.824h.092Zm13.172 11.628c2.491 0 4.193-1.867 4.193-5.097v-.953c0-3.261-1.722-5.096-4.142-5.096-1.477 0-2.574.707-3.158 1.753h-.093v-1.6h-2.368v14.51h2.43v-5.189h.092c.554 1.005 1.62 1.672 3.046 1.672Zm-.636-1.969c-1.549 0-2.523-1.241-2.523-3.251v-.758c0-1.959.964-3.2 2.492-3.2 1.497 0 2.39 1.159 2.39 3.21v.748c0 2.123-.954 3.251-2.36 3.251Zm12.607 1.969c2.492 0 4.194-1.867 4.194-5.097v-.953c0-3.261-1.723-5.096-4.143-5.096-1.476 0-2.573.707-3.158 1.753h-.092v-1.6h-2.369v14.51h2.43v-5.189h.093c.554 1.005 1.62 1.672 3.045 1.672Zm-.636-1.969c-1.548 0-2.522-1.241-2.522-3.251v-.758c0-1.959.964-3.2 2.492-3.2 1.497 0 2.389 1.159 2.389 3.21v.748c0 2.123-.954 3.251-2.359 3.251Zm17.837-7.752c-.112-2.43-1.907-4.696-5.414-4.696-3.63 0-5.865 2.419-5.865 6.326v1.815c0 3.774 1.835 6.409 5.814 6.409 4.102 0 5.496-2.84 5.496-4.922v-2.82h-5.465v1.918h3.096v1.025c0 1.518-1.24 2.687-3.106 2.687-2.308 0-3.343-1.723-3.343-4.297v-1.805c0-2.942 1.456-4.224 3.343-4.224 1.548 0 2.82.871 3.024 2.584h2.42Zm8.27 8.254h.093v1.323h2.296v-7.373c0-2.46-1.835-3.65-4.275-3.65-2.974 0-4.184 1.589-4.276 3.425h2.276c.072-.923.759-1.559 1.948-1.559 1.231 0 1.928.667 1.928 1.856v1.005h-2.707c-2.502.01-3.845 1.241-3.845 3.179 0 2.02 1.456 3.281 3.558 3.281 1.599 0 2.543-.666 3.004-1.487Zm-2.245-.328c-.974 0-1.897-.523-1.897-1.62 0-.872.605-1.477 1.876-1.477h2.256v1.18c0 1.138-.974 1.917-2.235 1.917Zm7.224 1.651h2.42v-14.735h-2.42V188.5Zm5.183 0h2.42v-14.735h-2.42V188.5Zm9.48.185c2.748 0 4.174-1.61 4.471-3.364h-2.276c-.257.923-1.046 1.487-2.174 1.487-1.487 0-2.451-1.159-2.451-2.922v-.277h7.024v-1.046c0-3.076-1.784-5.096-4.696-5.096-2.851 0-4.707 1.917-4.707 5.004v1.066c0 3.251 1.877 5.148 4.809 5.148Zm-2.43-6.706v-.021c0-1.487.923-2.646 2.338-2.646 1.405 0 2.317 1.149 2.317 2.646v.021h-4.655Zm9.162 6.521h2.471v-6.337c0-1.466.616-2.563 2.42-2.563.39 0 .8.02 1.005.082v-2.123a4.186 4.186 0 0 0-.8-.072c-1.497 0-2.307.933-2.573 1.61h-.103v-1.446h-2.42V188.5Zm17.171-10.849h-2.574l-2.533 8.552h-.082l-2.502-8.552h-2.676l3.825 10.911-.113.44c-.216.985-.698 1.549-2.02 1.549a6.34 6.34 0 0 1-.862-.062v1.795c.277.051.841.112 1.364.112 2.615 0 3.558-1.507 4.245-3.353l.277-.738c.031-.082 3.651-10.654 3.651-10.654Z"/></g></g><g id="download_samsung"><rect id="Rectangle_4" y="203" width="160" height="50" rx="5" fill="#000"/><g id="Group 14"><path id="Union" fill-rule="evenodd" clip-rule="evenodd" d="M116.314 229.694h1.48v-1.317l2.013-1.377v2.694h1.761v1.791h-1.761v3.241c0 1.51.207 1.747 1.761 1.747v1.88h-.281c-2.679 0-3.493-.859-3.493-3.611v-3.257h-1.48v-1.791Zm-43.136-2.297h2.013v10.954h-2.013v-10.954ZM51 232.95c0-3.078 2.324-5.55 5.52-5.55 2.236 0 3.997 1.139 4.915 2.767l-1.776 1.066c-.666-1.228-1.702-1.88-3.123-1.88-2.013 0-3.538 1.629-3.538 3.597 0 1.998 1.51 3.597 3.611 3.597 1.614 0 2.74-.918 3.124-2.339h-3.449v-1.924h5.61v.8c0 2.915-2.058 5.417-5.285 5.417-3.374 0-5.609-2.561-5.609-5.551Zm16.106-3.433c-2.19 0-4.293 1.642-4.293 4.514 0 2.827 2.176 4.5 4.263 4.5 1.14 0 2.176-.504 2.813-1.303v1.125h1.998v-8.659h-1.999v1.036c-.621-.74-1.643-1.213-2.782-1.213Zm.296 1.82c1.48 0 2.59 1.199 2.59 2.664 0 1.495-1.11 2.694-2.59 2.694-1.48 0-2.62-1.184-2.62-2.694 0-1.494 1.14-2.664 2.62-2.664Zm8.808 2.694c0-2.872 2.102-4.514 4.293-4.514 1.14 0 2.16.473 2.782 1.213v-1.036h1.999v8.659h-1.999v-1.125c-.636.799-1.672 1.303-2.812 1.303-2.087 0-4.263-1.673-4.263-4.5Zm7.18-.03c0-1.465-1.11-2.664-2.59-2.664-1.481 0-2.62 1.17-2.62 2.664 0 1.51 1.139 2.694 2.62 2.694 1.479 0 2.59-1.199 2.59-2.694Zm2.65-4.307 3.138 4.248-3.256 4.411h2.442l2.058-2.886 2.116 2.886h2.442l-3.315-4.381 3.108-4.278h-2.368l-1.954 2.753-1.968-2.753H86.04Zm12.686 8.229-3.552-8.229h2.131l2.413 5.832 2.279-5.832h2.103l-5.166 12.655h-2.028l1.82-4.426Zm11.311-2.811-1.836 1.45c.977 1.11 2.265 1.939 4.219 1.939 2.368 0 3.73-1.658 3.73-3.36 0-2.072-1.658-2.723-3.123-3.197l-.215-.07c-1.078-.352-1.991-.649-1.991-1.455 0-.695.533-1.228 1.51-1.228.858 0 1.495.355 1.954 1.036l1.657-1.258c-.873-.903-1.879-1.569-3.626-1.569-2.072 0-3.582 1.362-3.582 3.093 0 2.058 1.614 2.62 3.064 3.079l.188.058c1.083.33 2.062.629 2.062 1.496 0 .756-.577 1.451-1.643 1.451-.977 0-1.821-.533-2.368-1.465Zm16.55-5.596c-2.502 0-4.485 1.999-4.485 4.515 0 2.501 1.983 4.5 4.485 4.5a4.476 4.476 0 0 0 4.484-4.5c0-2.516-1.998-4.515-4.484-4.515Zm0 1.88c1.406 0 2.516 1.185 2.516 2.635 0 1.436-1.11 2.62-2.516 2.62-1.436 0-2.517-1.184-2.517-2.62 0-1.45 1.081-2.635 2.517-2.635Zm5.507-1.702h1.983v1.288c.4-.859 1.125-1.288 2.22-1.288.622 0 1.14.148 1.525.37l-.755 1.894c-.296-.192-.637-.34-1.199-.34-1.154 0-1.776.622-1.776 2.116v4.619h-1.998v-8.659Zm10.451-.178c-2.532 0-4.5 1.999-4.5 4.53 0 2.501 1.85 4.484 4.574 4.484 1.924 0 3.286-.946 4.041-2.338l-1.643-.947c-.415.917-1.288 1.524-2.398 1.524-1.421 0-2.398-.828-2.664-2.043H147v-.754c0-2.561-1.88-4.456-4.455-4.456Zm2.427 3.538h-4.914c.355-1.051 1.288-1.776 2.487-1.776 1.243 0 2.131.622 2.427 1.776Z" fill="#fff"/></g><g id="Group 13"><rect id="Rectangle 512" x="11" y="213" width="30" height="30" rx="10.909" fill="url('#paint0_linear')"/><g id="Shape 526"><g id="Group"><path id="Vector" fill-rule="evenodd" clip-rule="evenodd" d="m29.936 224.577-.057-.249a3.969 3.969 0 0 0-3.965-3.964 3.969 3.969 0 0 0-3.965 3.964l-.057.249h-3.256l.878 8.182a3.27 3.27 0 0 0 3.253 2.926h6.294a3.27 3.27 0 0 0 3.253-2.926l.877-8.182h-3.255Zm-6.32 0 .064-.249a2.237 2.237 0 0 1 2.234-2.234 2.237 2.237 0 0 1 2.234 2.234l.064.249h-4.596Z" fill="#fff"/></g></g></g><g id="Group 2_4"><path id="GET IT ON_2" d="M56.34 215.939c-.054-1.157-.908-2.236-2.578-2.236-1.729 0-2.793 1.152-2.793 3.013v.864c0 1.797.874 3.052 2.768 3.052 1.953 0 2.617-1.353 2.617-2.344v-1.343h-2.602v.913h1.475v.489c0 .722-.591 1.279-1.48 1.279-1.099 0-1.592-.82-1.592-2.046v-.859c0-1.402.694-2.012 1.592-2.012.737 0 1.343.415 1.44 1.23h1.153Zm6.23 3.575h-3.033v-1.929h2.852v-.933h-2.852v-1.831h3.032v-.986H58.36v6.665h4.21v-.986Zm4.506.986v-5.664h1.938v-1.001H63.97v1.001h1.934v5.664h1.172Zm7.522 0v-6.665h-1.181v6.665h1.181Zm4.829 0v-5.664h1.938v-1.001h-5.044v1.001h1.934v5.664h1.172Zm7.274-3.76c0-1.347.683-2.036 1.606-2.036.928 0 1.602.689 1.602 2.036v.904c0 1.347-.674 1.987-1.602 1.987-.923 0-1.606-.64-1.606-1.987v-.904Zm-1.197.899c0 1.884 1.065 2.993 2.798 2.993s2.808-1.109 2.808-2.993v-.889c0-1.89-1.06-3.047-2.798-3.047-1.729 0-2.808 1.152-2.808 3.047v.889Zm8.715 2.861v-4.678h.035l3.09 4.678h1.011v-6.665h-1.103v4.663h-.04l-3.08-4.663H93.11v6.665h1.108Z" fill="#fff"/></g></g><g id="download_play"><rect id="Rectangle_5" y="101" width="160" height="50" rx="5" fill="#000"/><g id="Group_2"><g id="path46"><mask id="path-21-outside-1" maskUnits="userSpaceOnUse" x="48.22" y="121.234" width="101.492" height="22.291" fill="#000"><path fill="#fff" d="M48.22 121.234h101.492v22.291H48.22z"/><path d="M81.28 127.986c-2.756 0-5.009 2.074-5.009 4.936 0 2.838 2.253 4.934 5.01 4.934 2.763 0 5.016-2.096 5.016-4.934 0-2.862-2.253-4.936-5.016-4.936Zm0 7.926c-1.512 0-2.814-1.234-2.814-2.99 0-1.78 1.302-2.992 2.815-2.992s2.82 1.212 2.82 2.992c0 1.756-1.307 2.99-2.82 2.99Zm-10.93-7.926c-2.763 0-5.01 2.074-5.01 4.936 0 2.838 2.247 4.934 5.01 4.934 2.762 0 5.01-2.096 5.01-4.934 0-2.862-2.248-4.936-5.01-4.936Zm0 7.926c-1.514 0-2.82-1.234-2.82-2.99 0-1.78 1.306-2.992 2.82-2.992 1.513 0 2.815 1.212 2.815 2.992 0 1.756-1.302 2.99-2.815 2.99Zm-13.007-6.413v2.097h5.067c-.148 1.172-.545 2.033-1.152 2.634-.74.725-1.892 1.53-3.915 1.53-3.119 0-5.56-2.487-5.56-5.569s2.441-5.57 5.56-5.57c1.686 0 2.913.651 3.818 1.496l1.495-1.478c-1.266-1.195-2.95-2.114-5.313-2.114-4.276 0-7.87 3.439-7.87 7.666 0 4.226 3.594 7.665 7.87 7.665 2.31 0 4.047-.749 5.412-2.153 1.398-1.382 1.834-3.325 1.834-4.895 0-.487-.041-.935-.115-1.309h-7.131Zm53.188 1.626c-.412-1.104-1.684-3.139-4.276-3.139-2.568 0-4.706 2-4.706 4.936 0 2.764 2.116 4.934 4.953 4.934 2.293 0 3.617-1.382 4.161-2.187l-1.702-1.121c-.568.82-1.341 1.364-2.459 1.364-1.111 0-1.908-.503-2.419-1.495l6.679-2.731-.231-.561Zm-6.809 1.643c-.057-1.903 1.496-2.878 2.608-2.878.872 0 1.611.431 1.858 1.048l-4.466 1.83Zm-5.428 4.788h2.196v-14.504h-2.196v14.504Zm-3.595-8.471h-.073c-.493-.577-1.434-1.099-2.626-1.099-2.5 0-4.786 2.17-4.786 4.952 0 2.765 2.286 4.918 4.787 4.918 1.191 0 2.132-.527 2.625-1.121h.073v.707c0 1.887-1.02 2.901-2.665 2.901-1.341 0-2.173-.957-2.516-1.762l-1.91.788c.55 1.308 2.008 2.918 4.426 2.918 2.574 0 4.746-1.497 4.746-5.139v-8.862H94.7v.799Zm-2.51 6.827c-1.514 0-2.78-1.251-2.78-2.974 0-1.739 1.266-3.008 2.78-3.008 1.49 0 2.666 1.269 2.666 3.008 0 1.723-1.176 2.974-2.667 2.974Zm28.62-12.86h-5.25v14.504h2.189v-5.496h3.061c2.432 0 4.816-1.739 4.816-4.505 0-2.764-2.39-4.503-4.816-4.503Zm.057 6.991h-3.118v-4.974h3.118a2.531 2.531 0 0 1 2.568 2.486c0 1.123-.933 2.488-2.568 2.488Zm13.534-2.084c-1.581 0-3.226.69-3.903 2.22l1.943.805c.418-.805 1.187-1.066 2-1.066 1.136 0 2.288.674 2.305 1.865v.152c-.396-.226-1.244-.561-2.287-.561-2.093 0-4.225 1.139-4.225 3.263 0 1.944 1.714 3.196 3.641 3.196 1.473 0 2.286-.657 2.797-1.422h.074v1.121h2.115v-5.563c0-2.572-1.943-4.01-4.46-4.01Zm-.264 7.947c-.716 0-1.714-.35-1.714-1.228 0-1.123 1.245-1.553 2.322-1.553.964 0 1.416.21 2.001.487-.171 1.343-1.341 2.294-2.609 2.294Zm12.428-7.63-2.517 6.287h-.074l-2.602-6.287h-2.361l3.909 8.786-2.231 4.89h2.288L149 128.276h-2.436Zm-19.735 9.28h2.195v-14.504h-2.195v14.504Z"/></mask><path d="M81.28 127.986c-2.756 0-5.009 2.074-5.009 4.936 0 2.838 2.253 4.934 5.01 4.934 2.763 0 5.016-2.096 5.016-4.934 0-2.862-2.253-4.936-5.016-4.936Zm0 7.926c-1.512 0-2.814-1.234-2.814-2.99 0-1.78 1.302-2.992 2.815-2.992s2.82 1.212 2.82 2.992c0 1.756-1.307 2.99-2.82 2.99Zm-10.93-7.926c-2.763 0-5.01 2.074-5.01 4.936 0 2.838 2.247 4.934 5.01 4.934 2.762 0 5.01-2.096 5.01-4.934 0-2.862-2.248-4.936-5.01-4.936Zm0 7.926c-1.514 0-2.82-1.234-2.82-2.99 0-1.78 1.306-2.992 2.82-2.992 1.513 0 2.815 1.212 2.815 2.992 0 1.756-1.302 2.99-2.815 2.99Zm-13.007-6.413v2.097h5.067c-.148 1.172-.545 2.033-1.152 2.634-.74.725-1.892 1.53-3.915 1.53-3.119 0-5.56-2.487-5.56-5.569s2.441-5.57 5.56-5.57c1.686 0 2.913.651 3.818 1.496l1.495-1.478c-1.266-1.195-2.95-2.114-5.313-2.114-4.276 0-7.87 3.439-7.87 7.666 0 4.226 3.594 7.665 7.87 7.665 2.31 0 4.047-.749 5.412-2.153 1.398-1.382 1.834-3.325 1.834-4.895 0-.487-.041-.935-.115-1.309h-7.131Zm53.188 1.626c-.412-1.104-1.684-3.139-4.276-3.139-2.568 0-4.706 2-4.706 4.936 0 2.764 2.116 4.934 4.953 4.934 2.293 0 3.617-1.382 4.161-2.187l-1.702-1.121c-.568.82-1.341 1.364-2.459 1.364-1.111 0-1.908-.503-2.419-1.495l6.679-2.731-.231-.561Zm-6.809 1.643c-.057-1.903 1.496-2.878 2.608-2.878.872 0 1.611.431 1.858 1.048l-4.466 1.83Zm-5.428 4.788h2.196v-14.504h-2.196v14.504Zm-3.595-8.471h-.073c-.493-.577-1.434-1.099-2.626-1.099-2.5 0-4.786 2.17-4.786 4.952 0 2.765 2.286 4.918 4.787 4.918 1.191 0 2.132-.527 2.625-1.121h.073v.707c0 1.887-1.02 2.901-2.665 2.901-1.341 0-2.173-.957-2.516-1.762l-1.91.788c.55 1.308 2.008 2.918 4.426 2.918 2.574 0 4.746-1.497 4.746-5.139v-8.862H94.7v.799Zm-2.51 6.827c-1.514 0-2.78-1.251-2.78-2.974 0-1.739 1.266-3.008 2.78-3.008 1.49 0 2.666 1.269 2.666 3.008 0 1.723-1.176 2.974-2.667 2.974Zm28.62-12.86h-5.25v14.504h2.189v-5.496h3.061c2.432 0 4.816-1.739 4.816-4.505 0-2.764-2.39-4.503-4.816-4.503Zm.057 6.991h-3.118v-4.974h3.118a2.531 2.531 0 0 1 2.568 2.486c0 1.123-.933 2.488-2.568 2.488Zm13.534-2.084c-1.581 0-3.226.69-3.903 2.22l1.943.805c.418-.805 1.187-1.066 2-1.066 1.136 0 2.288.674 2.305 1.865v.152c-.396-.226-1.244-.561-2.287-.561-2.093 0-4.225 1.139-4.225 3.263 0 1.944 1.714 3.196 3.641 3.196 1.473 0 2.286-.657 2.797-1.422h.074v1.121h2.115v-5.563c0-2.572-1.943-4.01-4.46-4.01Zm-.264 7.947c-.716 0-1.714-.35-1.714-1.228 0-1.123 1.245-1.553 2.322-1.553.964 0 1.416.21 2.001.487-.171 1.343-1.341 2.294-2.609 2.294Zm12.428-7.63-2.517 6.287h-.074l-2.602-6.287h-2.361l3.909 8.786-2.231 4.89h2.288L149 128.276h-2.436Zm-19.735 9.28h2.195v-14.504h-2.195v14.504Z" fill="#fff"/><path d="M81.28 127.986c-2.756 0-5.009 2.074-5.009 4.936 0 2.838 2.253 4.934 5.01 4.934 2.763 0 5.016-2.096 5.016-4.934 0-2.862-2.253-4.936-5.016-4.936Zm0 7.926c-1.512 0-2.814-1.234-2.814-2.99 0-1.78 1.302-2.992 2.815-2.992s2.82 1.212 2.82 2.992c0 1.756-1.307 2.99-2.82 2.99Zm-10.93-7.926c-2.763 0-5.01 2.074-5.01 4.936 0 2.838 2.247 4.934 5.01 4.934 2.762 0 5.01-2.096 5.01-4.934 0-2.862-2.248-4.936-5.01-4.936Zm0 7.926c-1.514 0-2.82-1.234-2.82-2.99 0-1.78 1.306-2.992 2.82-2.992 1.513 0 2.815 1.212 2.815 2.992 0 1.756-1.302 2.99-2.815 2.99Zm-13.007-6.413v2.097h5.067c-.148 1.172-.545 2.033-1.152 2.634-.74.725-1.892 1.53-3.915 1.53-3.119 0-5.56-2.487-5.56-5.569s2.441-5.57 5.56-5.57c1.686 0 2.913.651 3.818 1.496l1.495-1.478c-1.266-1.195-2.95-2.114-5.313-2.114-4.276 0-7.87 3.439-7.87 7.666 0 4.226 3.594 7.665 7.87 7.665 2.31 0 4.047-.749 5.412-2.153 1.398-1.382 1.834-3.325 1.834-4.895 0-.487-.041-.935-.115-1.309h-7.131Zm53.188 1.626c-.412-1.104-1.684-3.139-4.276-3.139-2.568 0-4.706 2-4.706 4.936 0 2.764 2.116 4.934 4.953 4.934 2.293 0 3.617-1.382 4.161-2.187l-1.702-1.121c-.568.82-1.341 1.364-2.459 1.364-1.111 0-1.908-.503-2.419-1.495l6.679-2.731-.231-.561Zm-6.809 1.643c-.057-1.903 1.496-2.878 2.608-2.878.872 0 1.611.431 1.858 1.048l-4.466 1.83Zm-5.428 4.788h2.196v-14.504h-2.196v14.504Zm-3.595-8.471h-.073c-.493-.577-1.434-1.099-2.626-1.099-2.5 0-4.786 2.17-4.786 4.952 0 2.765 2.286 4.918 4.787 4.918 1.191 0 2.132-.527 2.625-1.121h.073v.707c0 1.887-1.02 2.901-2.665 2.901-1.341 0-2.173-.957-2.516-1.762l-1.91.788c.55 1.308 2.008 2.918 4.426 2.918 2.574 0 4.746-1.497 4.746-5.139v-8.862H94.7v.799Zm-2.51 6.827c-1.514 0-2.78-1.251-2.78-2.974 0-1.739 1.266-3.008 2.78-3.008 1.49 0 2.666 1.269 2.666 3.008 0 1.723-1.176 2.974-2.667 2.974Zm28.62-12.86h-5.25v14.504h2.189v-5.496h3.061c2.432 0 4.816-1.739 4.816-4.505 0-2.764-2.39-4.503-4.816-4.503Zm.057 6.991h-3.118v-4.974h3.118a2.531 2.531 0 0 1 2.568 2.486c0 1.123-.933 2.488-2.568 2.488Zm13.534-2.084c-1.581 0-3.226.69-3.903 2.22l1.943.805c.418-.805 1.187-1.066 2-1.066 1.136 0 2.288.674 2.305 1.865v.152c-.396-.226-1.244-.561-2.287-.561-2.093 0-4.225 1.139-4.225 3.263 0 1.944 1.714 3.196 3.641 3.196 1.473 0 2.286-.657 2.797-1.422h.074v1.121h2.115v-5.563c0-2.572-1.943-4.01-4.46-4.01Zm-.264 7.947c-.716 0-1.714-.35-1.714-1.228 0-1.123 1.245-1.553 2.322-1.553.964 0 1.416.21 2.001.487-.171 1.343-1.341 2.294-2.609 2.294Zm12.428-7.63-2.517 6.287h-.074l-2.602-6.287h-2.361l3.909 8.786-2.231 4.89h2.288L149 128.276h-2.436Zm-19.735 9.28h2.195v-14.504h-2.195v14.504Z" stroke="#fff" stroke-width=".1" mask="url('#path-21-outside-1')"/></g><g id="g48"><path id="path64" d="M13.544 111.494c-.344.357-.544.913-.544 1.632v25.66c0 .719.2 1.274.544 1.631l.085.079 14.549-14.373v-.34L13.629 111.41l-.085.084Z" fill="url('#paint1_linear')"/></g><g id="g66"><path id="path78" d="m33.021 130.916-4.844-4.793v-.34l4.85-4.793.109.062 5.743 3.23c1.64.917 1.64 2.425 0 3.348l-5.743 3.224-.115.062Z" fill="url('#paint2_linear')"/></g><g id="g80"><path id="path88" d="m33.136 130.854-4.958-4.901-14.634 14.464c.545.566 1.433.634 2.442.069l17.15-9.632Z" fill="url('#paint3_linear')"/></g><g id="g90"><path id="path104" d="m33.136 121.052-17.15-9.632c-1.01-.56-1.897-.491-2.442.074l14.634 14.459 4.958-4.901Z" fill="url('#paint4_linear')"/></g></g><g id="Group 2_5"><path id="GET IT ON_3" d="M50.969 114.58v-.864c0-.931.249-1.665.747-2.202.501-.541 1.183-.811 2.046-.811.403 0 .768.062 1.093.186.33.123.598.291.806.503.209.208.37.444.483.708.118.263.183.543.196.839h-1.153c-.048-.393-.205-.696-.468-.908-.264-.215-.588-.322-.972-.322-.475 0-.86.168-1.152.503-.293.335-.44.838-.44 1.509v.859c0 .638.132 1.139.396 1.504.267.361.666.542 1.196.542.44 0 .796-.12 1.07-.361.273-.244.41-.55.41-.918v-.484h-1.475v-.918h2.602v1.343c0 .208-.027.417-.082.625a2.376 2.376 0 0 1-.279.63c-.13.208-.293.392-.488.552a2.345 2.345 0 0 1-.752.39 3.287 3.287 0 0 1-1.016.147c-.914 0-1.605-.275-2.07-.825-.465-.55-.698-1.293-.698-2.227Zm7.392 2.92v-6.665h4.209v.986h-3.033v1.831h2.852v.933h-2.852v1.929h3.032v.986H58.36Zm5.61-5.664v-1.001h5.043v1.001h-1.938v5.664h-1.172v-5.664H63.97Zm9.446 5.664v-6.665h1.181v6.665h-1.181Zm2.807-5.664v-1.001h5.044v1.001h-1.939v5.664h-1.172v-5.664h-1.933Zm9.183 2.803v-.889c0-.944.25-1.688.752-2.231.5-.544 1.184-.816 2.05-.816.866 0 1.548.272 2.046.816.498.543.747 1.287.747 2.231v.889c0 .937-.25 1.671-.752 2.202-.498.527-1.183.791-2.055.791-.87 0-1.551-.264-2.046-.791-.495-.528-.742-1.262-.742-2.202Zm1.191.005c0 .651.147 1.145.44 1.484.293.335.681.503 1.166.503.482 0 .87-.168 1.163-.503.293-.339.44-.833.44-1.484v-.904c0-.654-.15-1.157-.445-1.509-.293-.351-.679-.527-1.157-.527-.482 0-.871.176-1.168.527-.293.352-.439.855-.439 1.509v.904Zm6.406 2.856v-6.665h1.02l3.061 4.663h.04v-4.663h1.123v6.665h-1.011l-3.071-4.678h-.035v4.678h-1.127Z" fill="#fff"/></g></g></g><defs><linearGradient id="paint0_linear" x1="12.364" y1="213" x2="34.591" y2="243" gradientUnits="userSpaceOnUse"><stop stop-color="#F004E1"/><stop offset=".738" stop-color="#FF226C"/><stop offset="1" stop-color="#F65"/></linearGradient><linearGradient id="paint1_linear" x1="26.886" y1="139.053" x2="7.415" y2="119.353" gradientUnits="userSpaceOnUse"><stop stop-color="#00A0FF"/><stop offset=".007" stop-color="#00A1FF"/><stop offset=".26" stop-color="#00BEFF"/><stop offset=".512" stop-color="#00D2FF"/><stop offset=".76" stop-color="#00DFFF"/><stop offset="1" stop-color="#00E3FF"/></linearGradient><linearGradient id="paint2_linear" x1="41.014" y1="125.951" x2="12.608" y2="125.951" gradientUnits="userSpaceOnUse"><stop stop-color="#FFE000"/><stop offset=".409" stop-color="#FFBD00"/><stop offset=".775" stop-color="orange"/><stop offset="1" stop-color="#FF9C00"/></linearGradient><linearGradient id="paint3_linear" x1="30.44" y1="123.289" x2="4.036" y2="96.574" gradientUnits="userSpaceOnUse"><stop stop-color="#FF3A44"/><stop offset="1" stop-color="#C31162"/></linearGradient><linearGradient id="paint4_linear" x1="9.861" y1="148.954" x2="21.652" y2="137.025" gradientUnits="userSpaceOnUse"><stop stop-color="#32A071"/><stop offset=".069" stop-color="#2DA771"/><stop offset=".476" stop-color="#15CF74"/><stop offset=".801" stop-color="#06E775"/><stop offset="1" stop-color="#00F076"/></linearGradient></defs></svg>